<?xml version="1.0" encoding="utf-8"?>
<svg width="230" height="80" viewBox="0 0 230 80" fill="none" stroke="none" version="1.1" xmlns:xlink="http://www.w3.org/1999/xlink" xmlns="http://www.w3.org/2000/svg">
  <g id="Группа">
    <path id="Прямоугольник" d="M39.9063 0L190.094 0C212.133 0 230 17.8666 230 39.9063L230 40.0938C230 62.1334 212.133 80 190.094 80L132.001 80L39.9063 80C17.8666 80 0 62.1334 0 40.0938L0 39.9063C0 17.8666 17.8666 0 39.9063 0Z" style="fill:#FFFFFF;fill-rule:evenodd;fill-opacity:0.204;mix-blend-mode:normal;" />
    <g style="mix-blend-mode:normal;" transform="translate(18 6.231)">
      <path d="M6.3 25.76L6.3 8.512L0.28 8.512L0.28 6.16L14.98 6.16L14.98 8.512L8.96 8.512L8.96 25.76L6.3 25.76ZM17.5 25.76L17.5 5.04L20.02 5.04L20.02 13.524Q20.804 12.376 22.008 11.62Q23.212 10.864 24.836 10.864Q27.3 10.864 28.518 12.348Q29.736 13.832 29.736 16.268L29.736 25.76L27.216 25.76L27.216 16.548Q27.216 14.98 26.488 14.028Q25.76 13.076 24.444 13.076Q23.156 13.076 21.994 13.986Q20.832 14.896 20.02 16.128L20.02 25.76L17.5 25.76ZM39.9 26.096Q36.764 26.096 34.93 24.094Q33.096 22.092 33.096 18.48Q33.096 16.296 33.922 14.574Q34.748 12.852 36.232 11.858Q37.716 10.864 39.676 10.864Q41.776 10.864 43.162 11.774Q44.548 12.684 45.248 14.224Q45.948 15.764 45.948 17.612Q45.948 18.592 45.864 19.516L35.672 19.516Q35.924 21.56 37.1 22.708Q38.276 23.856 40.208 23.856Q41.468 23.856 42.476 23.59Q43.484 23.324 44.408 22.904L44.996 25.06Q43.988 25.508 42.728 25.802Q41.468 26.096 39.9 26.096ZM35.644 17.472L43.624 17.472Q43.624 15.344 42.56 14.196Q41.496 13.048 39.62 13.048Q37.996 13.048 36.932 14.182Q35.868 15.316 35.644 17.472ZM64.68 26.096Q62.412 26.096 60.648 24.92Q58.884 23.744 57.876 21.574Q56.868 19.404 56.868 16.464Q56.868 13.328 57.932 10.934Q58.996 8.54 60.998 7.182Q63 5.824 65.828 5.824Q67.648 5.824 69.076 6.272Q70.504 6.72 71.764 7.42L70.784 9.632Q69.608 8.988 68.39 8.568Q67.172 8.148 65.688 8.148Q63.924 8.148 62.552 9.086Q61.18 10.024 60.382 11.844Q59.584 13.664 59.584 16.296Q59.584 18.648 60.312 20.314Q61.04 21.98 62.328 22.876Q63.616 23.772 65.296 23.772Q66.864 23.772 68.082 23.114Q69.3 22.456 70 21.756L70 17.472L65.94 17.472L65.94 15.372L72.52 15.372L72.52 25.76L70.168 25.76L70.168 23.8Q69.188 24.668 67.788 25.382Q66.388 26.096 64.68 26.096ZM76.58 25.76L76.58 11.2L79.016 11.2L79.016 14.364Q79.38 13.44 79.996 12.642Q80.612 11.844 81.536 11.354Q82.46 10.864 83.692 10.864Q84.112 10.864 84.532 10.906Q84.952 10.948 85.232 11.032L84.476 13.636Q83.944 13.412 83.216 13.412Q82.18 13.412 81.242 14Q80.304 14.588 79.702 15.82Q79.1 17.052 79.1 18.956L79.1 25.76L76.58 25.76ZM92.736 26.096Q89.6 26.096 87.766 24.094Q85.932 22.092 85.932 18.48Q85.932 16.296 86.758 14.574Q87.584 12.852 89.068 11.858Q90.552 10.864 92.512 10.864Q94.612 10.864 95.998 11.774Q97.384 12.684 98.084 14.224Q98.784 15.764 98.784 17.612Q98.784 18.592 98.7 19.516L88.508 19.516Q88.76 21.56 89.936 22.708Q91.112 23.856 93.044 23.856Q94.304 23.856 95.312 23.59Q96.32 23.324 97.244 22.904L97.832 25.06Q96.824 25.508 95.564 25.802Q94.304 26.096 92.736 26.096ZM88.48 17.472L96.46 17.472Q96.46 15.344 95.396 14.196Q94.332 13.048 92.456 13.048Q90.832 13.048 89.768 14.182Q88.704 15.316 88.48 17.472ZM107.716 26.096Q105.896 26.096 104.412 25.172Q102.928 24.248 102.046 22.554Q101.164 20.86 101.164 18.564Q101.164 16.38 102.046 14.644Q102.928 12.908 104.482 11.886Q106.036 10.864 108.052 10.864Q109.312 10.864 110.334 11.298Q111.356 11.732 112.112 12.376L112.112 11.2L114.408 11.2L114.408 22.232Q114.408 23.296 114.926 23.618Q115.444 23.94 116.06 23.94L115.528 25.9Q112.84 25.9 112.28 23.716Q111.636 24.612 110.53 25.354Q109.424 26.096 107.716 26.096ZM108.276 23.856Q109.34 23.856 110.292 23.338Q111.244 22.82 111.888 22.036L111.888 14.224Q111.132 13.692 110.222 13.37Q109.312 13.048 108.304 13.048Q106.96 13.048 105.938 13.734Q104.916 14.42 104.328 15.638Q103.74 16.856 103.74 18.48Q103.74 20.048 104.328 21.266Q104.916 22.484 105.952 23.17Q106.988 23.856 108.276 23.856ZM124.516 26.096Q122.416 26.096 121.198 24.71Q119.98 23.324 119.98 20.748L119.98 13.916L117.46 13.916L117.46 11.732L120.036 11.732L120.568 7.14L122.5 7.14L122.5 11.732L126.532 11.732L126.532 13.916L122.5 13.916L122.5 20.944Q122.5 22.568 123.186 23.212Q123.872 23.856 124.824 23.856Q125.524 23.856 126.154 23.632Q126.784 23.408 127.316 23.1L128.016 25.116Q127.456 25.452 126.504 25.774Q125.552 26.096 124.516 26.096ZM144.088 26.096Q142.044 26.096 140.364 25.55Q138.684 25.004 137.536 24.108L138.88 21.868Q139.888 22.708 141.148 23.24Q142.408 23.772 144.088 23.772Q146.104 23.772 147.28 22.932Q148.456 22.092 148.456 20.664Q148.456 19.852 148.12 19.222Q147.784 18.592 146.818 17.99Q145.852 17.388 143.976 16.688Q141.96 15.904 140.756 15.106Q139.552 14.308 139.034 13.286Q138.516 12.264 138.516 10.864Q138.516 9.464 139.286 8.33Q140.056 7.196 141.554 6.51Q143.052 5.824 145.18 5.824Q146.916 5.824 148.302 6.174Q149.688 6.524 151.004 7.168L150.024 9.436Q149.072 8.876 147.798 8.498Q146.524 8.12 145.124 8.12Q143.276 8.12 142.212 8.848Q141.148 9.576 141.148 10.724Q141.148 11.452 141.456 12.012Q141.764 12.572 142.674 13.104Q143.584 13.636 145.404 14.308Q147.588 15.12 148.862 16.016Q150.136 16.912 150.668 17.962Q151.2 19.012 151.2 20.356Q151.2 22.176 150.29 23.464Q149.38 24.752 147.77 25.424Q146.16 26.096 144.088 26.096ZM159.992 26.096Q157.948 26.096 156.268 25.55Q154.588 25.004 153.44 24.108L154.784 21.868Q155.792 22.708 157.052 23.24Q158.312 23.772 159.992 23.772Q162.008 23.772 163.184 22.932Q164.36 22.092 164.36 20.664Q164.36 19.852 164.024 19.222Q163.688 18.592 162.722 17.99Q161.756 17.388 159.88 16.688Q157.864 15.904 156.66 15.106Q155.456 14.308 154.938 13.286Q154.42 12.264 154.42 10.864Q154.42 9.464 155.19 8.33Q155.96 7.196 157.458 6.51Q158.956 5.824 161.084 5.824Q162.82 5.824 164.206 6.174Q165.592 6.524 166.908 7.168L165.928 9.436Q164.976 8.876 163.702 8.498Q162.428 8.12 161.028 8.12Q159.18 8.12 158.116 8.848Q157.052 9.576 157.052 10.724Q157.052 11.452 157.36 12.012Q157.668 12.572 158.578 13.104Q159.488 13.636 161.308 14.308Q163.492 15.12 164.766 16.016Q166.04 16.912 166.572 17.962Q167.104 19.012 167.104 20.356Q167.104 22.176 166.194 23.464Q165.284 24.752 163.674 25.424Q162.064 26.096 159.992 26.096ZM171.024 25.76L171.024 6.16L173.684 6.16L173.684 25.76L171.024 25.76ZM190.148 26.096L187.712 20.776Q186.788 18.788 185.388 17.948Q183.988 17.108 181.804 17.108L181.384 17.108L181.384 25.76L178.724 25.76L178.724 6.216Q180.208 6.076 181.566 6.006Q182.924 5.936 184.464 5.936Q188.048 5.936 189.854 7.392Q191.66 8.848 191.66 11.144Q191.66 13.188 190.442 14.434Q189.224 15.68 186.928 16.296Q187.684 16.632 188.272 17.094Q188.86 17.556 189.406 18.326Q189.952 19.096 190.512 20.328L192.64 24.92L190.148 26.096ZM181.384 14.868L184.464 14.868Q186.48 14.868 187.74 13.972Q189 13.076 189 11.396Q189 9.996 187.824 9.086Q186.648 8.176 184.464 8.176Q183.512 8.176 182.756 8.204Q182 8.232 181.384 8.288L181.384 14.868Z" transform="translate(0 15.952)" style="fill:#FFFFFF;" />
    </g>
  </g>
</svg>