<?xml version="1.0" encoding="utf-8"?>
<svg width="230" height="80" viewBox="0 0 230 80" fill="none" stroke="none" version="1.1" xmlns:xlink="http://www.w3.org/1999/xlink" xmlns="http://www.w3.org/2000/svg">
  <g id="Группа">
    <path id="Прямоугольник" d="M190 0C212.094 0 230 17.9056 230 40L230 40C230 62.0944 212.094 80 190 80L40 80C17.9056 80 0 62.0944 0 40L0 40C0 17.9056 17.9056 0 40 0L190 0Z" style="fill:#B2B4B4;fill-opacity:0.58;mix-blend-mode:normal;" />
    <g style="mix-blend-mode:normal;" transform="translate(19.55 19)">
      <path d="M7.92 33.552Q5.796 33.552 4.086 33.012Q2.376 32.472 1.26 31.608L2.628 28.908Q3.564 29.7 4.986 30.222Q6.408 30.744 8.028 30.744Q10.044 30.744 11.07 30.078Q12.096 29.412 12.096 28.368Q12.096 27.612 11.718 27.036Q11.34 26.46 10.332 25.902Q9.324 25.344 7.416 24.696Q4.788 23.796 3.474 22.554Q2.16 21.312 2.16 19.116Q2.16 16.956 4.05 15.462Q5.94 13.968 9.288 13.968Q11.088 13.968 12.492 14.346Q13.896 14.724 15.012 15.3L14.112 17.964Q13.14 17.388 11.898 17.028Q10.656 16.668 9.144 16.668Q7.272 16.668 6.3 17.424Q5.328 18.18 5.328 19.08Q5.328 19.944 6.084 20.556Q6.84 21.168 9.036 21.888Q12.6 23.076 14.004 24.516Q15.408 25.956 15.408 28.116Q15.408 30.636 13.374 32.094Q11.34 33.552 7.92 33.552ZM24.768 33.552Q22.644 33.552 20.934 33.012Q19.224 32.472 18.108 31.608L19.476 28.908Q20.412 29.7 21.834 30.222Q23.256 30.744 24.876 30.744Q26.892 30.744 27.918 30.078Q28.944 29.412 28.944 28.368Q28.944 27.612 28.566 27.036Q28.188 26.46 27.18 25.902Q26.172 25.344 24.264 24.696Q21.636 23.796 20.322 22.554Q19.008 21.312 19.008 19.116Q19.008 16.956 20.898 15.462Q22.788 13.968 26.136 13.968Q27.936 13.968 29.34 14.346Q30.744 14.724 31.86 15.3L30.96 17.964Q29.988 17.388 28.746 17.028Q27.504 16.668 25.992 16.668Q24.12 16.668 23.148 17.424Q22.176 18.18 22.176 19.08Q22.176 19.944 22.932 20.556Q23.688 21.168 25.884 21.888Q29.448 23.076 30.852 24.516Q32.256 25.956 32.256 28.116Q32.256 30.636 30.222 32.094Q28.188 33.552 24.768 33.552ZM36.576 33.12L36.576 14.4L39.816 14.4L39.816 33.12L36.576 33.12ZM38.196 11.196Q37.26 11.196 36.594 10.512Q35.928 9.828 35.928 8.928Q35.928 7.884 36.54 7.272Q37.152 6.66 38.196 6.66Q39.132 6.66 39.798 7.326Q40.464 7.992 40.464 8.928Q40.464 9.936 39.852 10.566Q39.24 11.196 38.196 11.196ZM45.576 33.12L45.576 14.4L48.708 14.4L48.708 18.468Q49.176 17.28 49.968 16.254Q50.76 15.228 51.948 14.598Q53.136 13.968 54.72 13.968Q55.26 13.968 55.8 14.022Q56.34 14.076 56.7 14.184L55.728 17.532Q55.044 17.244 54.108 17.244Q52.776 17.244 51.57 18Q50.364 18.756 49.59 20.34Q48.816 21.924 48.816 24.372L48.816 33.12L45.576 33.12ZM61.74 22.248L61.74 19.296L73.98 19.296L73.98 22.248L61.74 22.248ZM88.092 33.552Q85.392 33.552 83.826 31.77Q82.26 29.988 82.26 26.676L82.26 17.892L79.02 17.892L79.02 15.084L82.332 15.084L83.016 9.18L85.5 9.18L85.5 15.084L90.684 15.084L90.684 17.892L85.5 17.892L85.5 26.928Q85.5 29.016 86.382 29.844Q87.264 30.672 88.488 30.672Q89.388 30.672 90.198 30.384Q91.008 30.096 91.692 29.7L92.592 32.292Q91.872 32.724 90.648 33.138Q89.424 33.552 88.092 33.552ZM102.6 33.552Q98.568 33.552 96.21 30.978Q93.852 28.404 93.852 23.76Q93.852 20.952 94.914 18.738Q95.976 16.524 97.884 15.246Q99.792 13.968 102.312 13.968Q105.012 13.968 106.794 15.138Q108.576 16.308 109.476 18.288Q110.376 20.268 110.376 22.644Q110.376 23.904 110.268 25.092L97.164 25.092Q97.488 27.72 99 29.196Q100.512 30.672 102.996 30.672Q104.616 30.672 105.912 30.33Q107.208 29.988 108.396 29.448L109.152 32.22Q107.856 32.796 106.236 33.174Q104.616 33.552 102.6 33.552ZM97.128 22.464L107.388 22.464Q107.388 19.728 106.02 18.252Q104.652 16.776 102.24 16.776Q100.152 16.776 98.784 18.234Q97.416 19.692 97.128 22.464ZM121.86 33.552Q119.52 33.552 117.612 32.364Q115.704 31.176 114.57 28.998Q113.436 26.82 113.436 23.868Q113.436 21.06 114.57 18.828Q115.704 16.596 117.702 15.282Q119.7 13.968 122.292 13.968Q123.912 13.968 125.226 14.526Q126.54 15.084 127.512 15.912L127.512 14.4L130.464 14.4L130.464 28.584Q130.464 29.952 131.13 30.366Q131.796 30.78 132.588 30.78L131.904 33.3Q128.448 33.3 127.728 30.492Q126.9 31.644 125.478 32.598Q124.056 33.552 121.86 33.552ZM122.58 30.672Q123.948 30.672 125.172 30.006Q126.396 29.34 127.224 28.332L127.224 18.288Q126.252 17.604 125.082 17.19Q123.912 16.776 122.616 16.776Q120.888 16.776 119.574 17.658Q118.26 18.54 117.504 20.106Q116.748 21.672 116.748 23.76Q116.748 25.776 117.504 27.342Q118.26 28.908 119.592 29.79Q120.924 30.672 122.58 30.672ZM136.908 33.12L136.908 14.4L140.04 14.4L140.04 17.532Q141.048 16.02 142.596 14.994Q144.144 13.968 146.124 13.968Q148.356 13.968 149.778 15.048Q151.2 16.128 151.776 17.928Q152.892 16.272 154.422 15.12Q155.952 13.968 158.22 13.968Q161.28 13.968 162.774 15.894Q164.268 17.82 164.268 20.916L164.268 33.12L161.028 33.12L161.028 21.168Q161.028 19.224 160.128 18.018Q159.228 16.812 157.644 16.812Q156.024 16.812 154.638 18.018Q153.252 19.224 152.208 20.844L152.208 33.12L148.968 33.12L148.968 21.168Q148.968 19.224 148.068 18.018Q147.168 16.812 145.584 16.812Q144 16.812 142.596 17.982Q141.192 19.152 140.148 20.736L140.148 33.12L136.908 33.12Z" transform="translate(12.541 0)" style="fill:#FFFFFF;" />
    </g>
  </g>
</svg>